<svg width="249" height="243" viewBox="0 0 249 243" fill="none" xmlns="http://www.w3.org/2000/svg">
<path d="M247.367 132.867C244.306 108.579 234.697 84.4135 222.184 64.6584C205.926 38.9544 179.931 18.3319 149.084 14.5096C127.259 11.8066 102.377 18.6957 85.4988 33.4756C77.0917 40.7433 70.6646 50.0239 66.8182 60.45C62.6881 71.7938 60.9252 84.7885 52.027 93.6923C41.3268 104.392 26.5581 109.508 15.5053 119.721C-8.99549 142.364 -1.84336 183.267 18.796 205.86C37.387 226.197 64.9546 222.436 89.7632 226.281C108.578 229.191 124.863 239.802 144.098 241.805C171.917 244.71 200.621 235.397 221.048 216.163C244.782 193.755 251.19 163.216 247.367 132.867Z" fill="#92E3A9"/>
<path opacity="0.7" d="M247.367 132.867C244.306 108.579 234.697 84.4135 222.184 64.6584C205.926 38.9544 179.931 18.3319 149.084 14.5096C127.259 11.8066 102.377 18.6957 85.4988 33.4756C77.0917 40.7433 70.6646 50.0239 66.8182 60.45C62.6881 71.7938 60.9252 84.7885 52.027 93.6923C41.3268 104.392 26.5581 109.508 15.5053 119.721C-8.99549 142.364 -1.84336 183.267 18.796 205.86C37.387 226.197 64.9546 222.436 89.7632 226.281C108.578 229.191 124.863 239.802 144.098 241.805C171.917 244.71 200.621 235.397 221.048 216.163C244.782 193.755 251.19 163.216 247.367 132.867Z" fill="#007A65"/>
<path d="M232.23 26.413H33.481C30.5664 26.413 28.2036 28.7757 28.2036 31.6903V166.641C28.2036 169.555 30.5664 171.918 33.481 171.918H232.23C235.144 171.918 237.507 169.555 237.507 166.641V31.6903C237.507 28.7757 235.144 26.413 232.23 26.413Z" stroke="#263238" stroke-width="2" stroke-linecap="round" stroke-linejoin="round"/>
<path d="M228.872 41.1705H36.7495V58.1107H228.872V41.1705Z" fill="#DBDBDB"/>
<path d="M140.041 36.2121H133.846C133.52 36.2121 133.198 36.148 132.897 36.0234C132.596 35.8988 132.323 35.7162 132.093 35.486C131.863 35.2558 131.68 34.9825 131.555 34.6817C131.431 34.3809 131.367 34.0585 131.367 33.733C131.367 33.0754 131.628 32.4449 132.093 31.9799C132.558 31.515 133.188 31.2538 133.846 31.2538H140.041C140.699 31.2538 141.329 31.515 141.794 31.9799C142.259 32.4449 142.52 33.0754 142.52 33.733C142.52 34.0585 142.456 34.3809 142.332 34.6817C142.207 34.9825 142.024 35.2558 141.794 35.486C141.564 35.7162 141.291 35.8988 140.99 36.0234C140.689 36.148 140.367 36.2121 140.041 36.2121Z" fill="#DBDBDB"/>
<path d="M161.111 36.2121H154.916C154.259 36.2107 153.63 35.9488 153.167 35.484C152.703 35.0193 152.442 34.3895 152.442 33.733C152.442 33.0754 152.704 32.4449 153.169 31.9799C153.633 31.515 154.264 31.2538 154.922 31.2538H161.117C161.774 31.2538 162.405 31.515 162.87 31.9799C163.335 32.4449 163.596 33.0754 163.596 33.733C163.596 34.059 163.532 34.3818 163.407 34.683C163.282 34.9842 163.099 35.2577 162.868 35.488C162.637 35.7183 162.363 35.9008 162.062 36.025C161.76 36.1493 161.437 36.2129 161.111 36.2121Z" fill="#DBDBDB"/>
<path d="M182.182 36.2121H175.987C175.661 36.2121 175.339 36.148 175.038 36.0234C174.737 35.8988 174.464 35.7162 174.233 35.486C174.003 35.2558 173.821 34.9825 173.696 34.6817C173.571 34.3809 173.507 34.0585 173.507 33.733C173.507 33.4074 173.571 33.085 173.696 32.7842C173.821 32.4834 174.003 32.2101 174.233 31.9799C174.464 31.7497 174.737 31.5671 175.038 31.4425C175.339 31.3179 175.661 31.2538 175.987 31.2538H182.182C182.839 31.2538 183.47 31.515 183.935 31.9799C184.4 32.4449 184.661 33.0754 184.661 33.733C184.661 34.0585 184.597 34.3809 184.472 34.6817C184.348 34.9825 184.165 35.2558 183.935 35.486C183.704 35.7162 183.431 35.8988 183.13 36.0234C182.83 36.148 182.507 36.2121 182.182 36.2121Z" fill="#DBDBDB"/>
<path d="M203.258 36.2121H197.057C196.4 36.2107 195.77 35.949 195.305 35.4844C194.841 35.0198 194.579 34.39 194.578 33.733C194.578 33.0754 194.839 32.4449 195.304 31.9799C195.769 31.515 196.399 31.2538 197.057 31.2538H203.258C203.915 31.2538 204.546 31.515 205.011 31.9799C205.476 32.4449 205.737 33.0754 205.737 33.733C205.735 34.39 205.474 35.0198 205.009 35.4844C204.544 35.949 203.915 36.2107 203.258 36.2121Z" fill="#DBDBDB"/>
<path d="M224.327 36.2121H218.127C217.47 36.2107 216.84 35.949 216.375 35.4844C215.911 35.0198 215.649 34.39 215.647 33.733C215.647 33.0754 215.909 32.4449 216.374 31.9799C216.839 31.515 217.469 31.2538 218.127 31.2538H224.327C224.985 31.2538 225.615 31.515 226.08 31.9799C226.545 32.4449 226.807 33.0754 226.807 33.733C226.805 34.39 226.543 35.0198 226.079 35.4844C225.614 35.949 224.984 36.2107 224.327 36.2121Z" fill="#DBDBDB"/>
<path d="M228.866 63.4775H85.9131V146.936H228.866V63.4775Z" fill="#C09B6F"/>
<path d="M228.872 111.819L204.494 81.2459L169.791 119.256L142.52 101.488L85.9189 146.941H228.872V111.819Z" fill="white"/>
<path d="M177.862 90.2706C182.277 86.8399 183.074 80.4797 179.644 76.0647C176.213 71.6498 169.853 70.852 165.438 74.2827C161.023 77.7135 160.225 84.0736 163.656 88.4886C167.087 92.9035 173.447 93.7013 177.862 90.2706Z" fill="white"/>
<path d="M37.5776 72.9802H73.1088" stroke="#9E9E9E" stroke-linecap="round" stroke-linejoin="round"/>
<path d="M37.5776 78.7668H73.1088" stroke="#9E9E9E" stroke-linecap="round" stroke-linejoin="round"/>
<path d="M37.5776 84.5533H73.1088" stroke="#9E9E9E" stroke-linecap="round" stroke-linejoin="round"/>
<path d="M37.5776 90.3344H73.1088" stroke="#9E9E9E" stroke-linecap="round" stroke-linejoin="round"/>
<path d="M37.5776 103.559H73.1088" stroke="#9E9E9E" stroke-linecap="round" stroke-linejoin="round"/>
<path d="M37.5776 109.34H73.1088" stroke="#9E9E9E" stroke-linecap="round" stroke-linejoin="round"/>
<path d="M37.5776 115.126H73.1088" stroke="#9E9E9E" stroke-linecap="round" stroke-linejoin="round"/>
<path d="M37.5776 120.907H73.1088" stroke="#9E9E9E" stroke-linecap="round" stroke-linejoin="round"/>
<path d="M68.7662 136.196H42.3235C39.9281 136.196 37.9863 138.138 37.9863 140.534V143.013C37.9863 145.408 39.9281 147.35 42.3235 147.35H68.7662C71.1616 147.35 73.1034 145.408 73.1034 143.013V140.534C73.1034 138.138 71.1616 136.196 68.7662 136.196Z" fill="#A68262"/>
<path d="M124.925 165.012C124.926 164.596 124.804 164.19 124.574 163.844C124.344 163.498 124.016 163.228 123.632 163.069C123.249 162.909 122.826 162.867 122.419 162.948C122.011 163.029 121.637 163.229 121.343 163.522C121.049 163.816 120.849 164.191 120.768 164.598C120.687 165.006 120.729 165.428 120.889 165.812C121.048 166.196 121.318 166.523 121.664 166.754C122.01 166.984 122.417 167.106 122.832 167.105C123.387 167.105 123.92 166.885 124.312 166.492C124.705 166.099 124.925 165.567 124.925 165.012Z" fill="#9E9E9E"/>
<path d="M133.118 167.111C134.277 167.111 135.217 166.171 135.217 165.012C135.217 163.853 134.277 162.913 133.118 162.913C131.959 162.913 131.02 163.853 131.02 165.012C131.02 166.171 131.959 167.111 133.118 167.111Z" fill="#9E9E9E"/>
<path d="M145.503 165.012C145.504 164.597 145.382 164.19 145.152 163.845C144.922 163.499 144.595 163.229 144.211 163.069C143.828 162.909 143.406 162.867 142.998 162.947C142.591 163.028 142.216 163.227 141.922 163.52C141.628 163.814 141.428 164.188 141.346 164.595C141.265 165.002 141.306 165.424 141.465 165.808C141.624 166.192 141.893 166.52 142.238 166.751C142.583 166.982 142.989 167.105 143.404 167.105C143.96 167.105 144.493 166.885 144.886 166.492C145.28 166.1 145.501 165.568 145.503 165.012Z" fill="#9E9E9E"/>
<path d="M100.206 180.794H57.271V204.365H100.206V180.794Z" stroke="#263238" stroke-linecap="round" stroke-linejoin="round"/>
<path d="M61.4795 187.532H94.733" stroke="#263238" stroke-linecap="round" stroke-linejoin="round"/>
<path d="M61.4795 192.16H94.733" stroke="#263238" stroke-linecap="round" stroke-linejoin="round"/>
<path d="M61.4795 196.788H94.733" stroke="#263238" stroke-linecap="round" stroke-linejoin="round"/>
<path d="M174.125 198.648C177.482 197.828 179.538 194.442 178.718 191.085C177.898 187.728 174.512 185.672 171.155 186.492C167.798 187.312 165.742 190.698 166.562 194.055C167.382 197.412 170.768 199.468 174.125 198.648Z" stroke="#263238" stroke-linecap="round" stroke-linejoin="round"/>
<path d="M177.111 192.552L170.384 188.668V196.436L177.111 192.552Z" stroke="#263238" stroke-linecap="round" stroke-linejoin="round"/>
<path d="M194.102 180.794H151.167V204.365H194.102V180.794Z" stroke="#263238" stroke-linecap="round" stroke-linejoin="round"/>
<path d="M192.177 203.336H154.25C154.008 203.336 153.776 203.24 153.605 203.069C153.434 202.898 153.338 202.665 153.338 202.424V202.424C153.338 202.182 153.434 201.95 153.605 201.779C153.776 201.607 154.008 201.511 154.25 201.511H192.177C192.418 201.511 192.65 201.607 192.822 201.779C192.993 201.95 193.089 202.182 193.089 202.424V202.424C193.089 202.665 192.993 202.898 192.822 203.069C192.65 203.24 192.418 203.336 192.177 203.336V203.336Z" stroke="#263238" stroke-linecap="round" stroke-linejoin="round"/>
<path d="M56.1851 194.941H55.6255" stroke="#263238" stroke-linecap="round" stroke-linejoin="round"/>
<path d="M54.4617 194.941H41.0977" stroke="#263238" stroke-linecap="round" stroke-linejoin="round" stroke-dasharray="2.08 2.08"/>
<path d="M40.5152 194.941H39.9556V194.382" stroke="#263238" stroke-linecap="round" stroke-linejoin="round"/>
<path d="M39.9556 193.234V173.132" stroke="#263238" stroke-linecap="round" stroke-linejoin="round" stroke-dasharray="2.05 2.05"/>
<path d="M39.9556 172.556V171.996" stroke="#263238" stroke-linecap="round" stroke-linejoin="round"/>
<path d="M172.589 180.95V180.391" stroke="#263238" stroke-linecap="round" stroke-linejoin="round"/>
<path d="M172.589 179.272V173.116" stroke="#263238" stroke-linecap="round" stroke-linejoin="round" stroke-dasharray="2 2"/>
<path d="M172.589 172.556V171.996" stroke="#263238" stroke-linecap="round" stroke-linejoin="round"/>
<path d="M219.447 12.1982V9.6463H217.556C217.424 9.08235 217.201 8.54365 216.896 8.05134L218.233 6.71382L216.431 4.91179L215.121 6.24932C214.629 5.94413 214.09 5.7211 213.526 5.58895V3.69739H210.98V5.58895C210.416 5.7211 209.878 5.94413 209.385 6.24932L208.048 4.91179L206.246 6.71382L207.583 8.05134C207.278 8.54365 207.055 9.08235 206.923 9.6463H205.031V12.1982H206.923C207.055 12.7604 207.278 13.2973 207.583 13.7876L206.246 15.1251L208.048 16.9271L209.385 15.5896C209.878 15.8948 210.416 16.1178 210.98 16.25V18.1416H213.526V16.25C214.09 16.1178 214.629 15.8948 215.121 15.5896L216.459 16.9271L218.261 15.1251L216.923 13.7876C217.228 13.2968 217.451 12.7601 217.584 12.1982H219.447ZM212.223 14.1793C211.574 14.1793 210.939 13.9869 210.4 13.6263C209.861 13.2657 209.44 12.7531 209.192 12.1536C208.944 11.554 208.88 10.8943 209.007 10.258C209.134 9.62173 209.446 9.03739 209.906 8.57898C210.365 8.12056 210.95 7.80866 211.586 7.68276C212.223 7.55685 212.882 7.62259 213.481 7.87167C214.081 8.12074 214.592 8.54195 214.952 9.08199C215.312 9.62203 215.503 10.2566 215.502 10.9055C215.502 11.3359 215.417 11.7621 215.252 12.1596C215.087 12.5572 214.846 12.9183 214.541 13.2224C214.237 13.5265 213.875 13.7675 213.477 13.9317C213.079 14.0959 212.653 14.1801 212.223 14.1793Z" stroke="#263238" stroke-linecap="round" stroke-linejoin="round"/>
<path d="M237.557 16.3396L238.894 13.0601L236.471 12.0696C236.597 11.278 236.597 10.4715 236.471 9.67993L238.889 8.66699L237.507 5.42111L235.094 6.43405C234.625 5.79087 234.059 5.22448 233.416 4.75515L234.406 2.33753L231.132 1L230.142 3.41762C229.352 3.29164 228.547 3.29164 227.758 3.41762L226.745 1L223.482 2.36551L224.495 4.78313C223.85 5.25063 223.284 5.81728 222.816 6.46203L220.393 5.47148L219.039 8.76773L221.462 9.75828C221.336 10.5498 221.336 11.3564 221.462 12.1479L219.039 13.1609L220.426 16.4179L222.838 15.405C223.308 16.0482 223.874 16.6146 224.517 17.0839L223.527 19.5071L226.801 20.8446L227.791 18.4214C228.581 18.5474 229.386 18.5474 230.175 18.4214L231.188 20.8334L234.451 19.4679L233.438 17.0503C234.084 16.5843 234.651 16.0174 235.117 15.3714L237.557 16.3396ZM227.248 15.1252C226.416 14.7857 225.703 14.2068 225.199 13.4619C224.696 12.717 224.425 11.8394 224.42 10.9404C224.416 10.0413 224.678 9.16108 225.174 8.4111C225.67 7.66113 226.377 7.07511 227.206 6.72719C228.035 6.37928 228.949 6.28511 229.831 6.4566C230.714 6.62809 231.526 7.05754 232.164 7.6906C232.803 8.32365 233.239 9.13187 233.418 10.013C233.597 10.8941 233.51 11.8084 233.169 12.6404C232.713 13.7544 231.833 14.6417 230.723 15.1076C229.613 15.5735 228.363 15.5798 227.248 15.1252V15.1252Z" stroke="#263238" stroke-linecap="round" stroke-linejoin="round"/>
<path d="M28.1531 58.9669H15.0688V15.4666H67.1764V25.6519" stroke="#263238" stroke-linecap="round" stroke-linejoin="round" stroke-dasharray="2 2"/>
<path d="M25.4054 19.7758H18.9473V26.2339H25.4054V19.7758Z" stroke="#263238" stroke-linecap="round" stroke-linejoin="round" stroke-dasharray="2 2"/>
<path d="M200.61 11.0118H169.394V25.9709" stroke="#263238" stroke-linecap="round" stroke-linejoin="round" stroke-dasharray="2 2"/>
<path d="M238.979 11.3364H244.508V74.424H238.005" stroke="#263238" stroke-linecap="round" stroke-linejoin="round" stroke-dasharray="2 2"/>
</svg>
