<svg width="137" height="74" viewBox="0 0 137 74" fill="none" xmlns="http://www.w3.org/2000/svg">
<rect width="24.9343" height="18.178" rx="5" fill="black"/>
<rect y="61.5706" width="52.7182" height="12.3141" rx="5" fill="#A68262"/>
<rect x="27.7839" y="44.5656" width="24.9343" height="15.2461" rx="5" fill="#F2F2F2"/>
<rect y="19.9373" width="24.9343" height="39.8743" rx="5" fill="#C09B6F"/>
<rect x="27.7839" width="24.9343" height="42.8063" rx="5" fill="#007A65"/>
<path d="M77.1855 19.383L73.2615 31.623H71.2095C70.9695 31.623 70.8015 31.467 70.7055 31.155L68.2695 23.535C68.2055 23.319 68.1455 23.103 68.0895 22.887C68.0415 22.671 67.9975 22.459 67.9575 22.251C67.8695 22.683 67.7615 23.115 67.6335 23.547L65.1615 31.155C65.0735 31.467 64.8855 31.623 64.5975 31.623H62.6415L58.7175 19.383H60.7575C60.9575 19.383 61.1215 19.435 61.2495 19.539C61.3855 19.635 61.4735 19.751 61.5135 19.887L63.5535 27.015C63.6335 27.343 63.7015 27.663 63.7575 27.975C63.8215 28.279 63.8775 28.583 63.9255 28.887C64.0055 28.583 64.0895 28.279 64.1775 27.975C64.2655 27.663 64.3575 27.343 64.4535 27.015L66.7455 19.851C66.7855 19.707 66.8655 19.591 66.9855 19.503C67.1135 19.407 67.2655 19.359 67.4415 19.359H68.5695C68.7535 19.359 68.9095 19.407 69.0375 19.503C69.1655 19.591 69.2495 19.707 69.2895 19.851L71.5215 27.015C71.6175 27.343 71.7055 27.663 71.7855 27.975C71.8735 28.287 71.9535 28.599 72.0255 28.911C72.0815 28.607 72.1415 28.299 72.2055 27.987C72.2695 27.675 72.3455 27.351 72.4335 27.015L74.5095 19.887C74.5575 19.743 74.6455 19.623 74.7735 19.527C74.9015 19.431 75.0575 19.383 75.2415 19.383H77.1855ZM81.7556 19.383V31.623H79.1756V19.383H81.7556ZM82.1876 15.687C82.1876 15.919 82.1396 16.139 82.0436 16.347C81.9556 16.555 81.8316 16.739 81.6716 16.899C81.5116 17.051 81.3236 17.175 81.1076 17.271C80.8996 17.359 80.6756 17.403 80.4356 17.403C80.2036 17.403 79.9836 17.359 79.7756 17.271C79.5756 17.175 79.3996 17.051 79.2476 16.899C79.0956 16.739 78.9716 16.555 78.8756 16.347C78.7876 16.139 78.7436 15.919 78.7436 15.687C78.7436 15.447 78.7876 15.223 78.8756 15.015C78.9716 14.807 79.0956 14.627 79.2476 14.475C79.3996 14.315 79.5756 14.191 79.7756 14.103C79.9836 14.007 80.2036 13.959 80.4356 13.959C80.6756 13.959 80.8996 14.007 81.1076 14.103C81.3236 14.191 81.5116 14.315 81.6716 14.475C81.8316 14.627 81.9556 14.807 82.0436 15.015C82.1396 15.223 82.1876 15.447 82.1876 15.687ZM87.6253 13.863V31.623H85.0453V13.863H87.6253ZM98.6218 22.395C98.2618 21.931 97.8658 21.607 97.4338 21.423C97.0018 21.239 96.5338 21.147 96.0298 21.147C95.0218 21.147 94.2338 21.519 93.6658 22.263C93.0978 22.999 92.8138 24.091 92.8138 25.539C92.8138 26.291 92.8778 26.935 93.0058 27.471C93.1338 27.999 93.3178 28.431 93.5578 28.767C93.7978 29.103 94.0898 29.347 94.4338 29.499C94.7778 29.651 95.1658 29.727 95.5978 29.727C96.2538 29.727 96.8178 29.587 97.2898 29.307C97.7698 29.019 98.2138 28.615 98.6218 28.095V22.395ZM101.202 13.863V31.623H99.6418C99.2978 31.623 99.0778 31.459 98.9818 31.131L98.7538 29.799C98.2418 30.399 97.6578 30.883 97.0018 31.251C96.3538 31.619 95.5978 31.803 94.7338 31.803C94.0458 31.803 93.4218 31.667 92.8618 31.395C92.3018 31.115 91.8218 30.711 91.4218 30.183C91.0218 29.655 90.7098 29.003 90.4858 28.227C90.2698 27.443 90.1618 26.547 90.1618 25.539C90.1618 24.627 90.2818 23.783 90.5218 23.007C90.7698 22.231 91.1218 21.559 91.5778 20.991C92.0338 20.415 92.5858 19.967 93.2338 19.647C93.8898 19.319 94.6218 19.155 95.4298 19.155C96.1498 19.155 96.7618 19.271 97.2658 19.503C97.7698 19.727 98.2218 20.043 98.6218 20.451V13.863H101.202Z" fill="#A68262"/>
<path d="M85.3394 56.2512V45.5592L83.6594 45.4512C83.4354 45.4272 83.3234 45.3272 83.3234 45.1512V44.6832H85.3394V43.9032C85.3394 43.1992 85.4434 42.5472 85.6514 41.9472C85.8594 41.3392 86.1634 40.8152 86.5634 40.3752C86.9714 39.9352 87.4714 39.5912 88.0634 39.3432C88.6554 39.0952 89.3394 38.9712 90.1154 38.9712C90.6594 38.9712 91.1914 38.9952 91.7114 39.0432C92.2394 39.0912 92.7354 39.1232 93.1994 39.1392H94.0514V56.2512H92.9114V39.9432C92.4874 39.9272 92.0354 39.9032 91.5554 39.8712C91.0834 39.8392 90.6514 39.8232 90.2594 39.8232C89.6594 39.8232 89.1234 39.9192 88.6514 40.1112C88.1794 40.2952 87.7794 40.5672 87.4514 40.9272C87.1314 41.2792 86.8834 41.7072 86.7074 42.2112C86.5394 42.7152 86.4554 43.2792 86.4554 43.9032V44.6832H89.9234V45.5352H86.4914V56.2512H85.3394ZM106.483 49.0752C106.483 48.4352 106.391 47.8632 106.207 47.3592C106.031 46.8472 105.779 46.4152 105.451 46.0632C105.123 45.7112 104.731 45.4432 104.275 45.2592C103.827 45.0672 103.331 44.9712 102.787 44.9712C102.171 44.9712 101.619 45.0672 101.131 45.2592C100.643 45.4512 100.219 45.7272 99.8594 46.0872C99.5074 46.4472 99.2234 46.8792 99.0074 47.3832C98.7914 47.8872 98.6474 48.4512 98.5754 49.0752H106.483ZM98.5154 49.8072V50.0352C98.5154 50.9312 98.6194 51.7192 98.8274 52.3992C99.0354 53.0792 99.3314 53.6512 99.7154 54.1152C100.099 54.5712 100.563 54.9152 101.107 55.1472C101.651 55.3792 102.259 55.4952 102.931 55.4952C103.531 55.4952 104.051 55.4312 104.491 55.3032C104.931 55.1672 105.299 55.0192 105.595 54.8592C105.899 54.6912 106.139 54.5432 106.315 54.4152C106.491 54.2792 106.619 54.2112 106.699 54.2112C106.803 54.2112 106.883 54.2512 106.939 54.3312L107.251 54.7152C107.059 54.9552 106.803 55.1792 106.483 55.3872C106.171 55.5952 105.819 55.7752 105.427 55.9272C105.043 56.0712 104.627 56.1872 104.179 56.2752C103.739 56.3632 103.295 56.4072 102.847 56.4072C102.031 56.4072 101.287 56.2672 100.615 55.9872C99.9434 55.6992 99.3674 55.2832 98.8874 54.7392C98.4074 54.1952 98.0354 53.5312 97.7714 52.7472C97.5154 51.9552 97.3874 51.0512 97.3874 50.0352C97.3874 49.1792 97.5074 48.3912 97.7474 47.6712C97.9954 46.9432 98.3474 46.3192 98.8034 45.7992C99.2674 45.2712 99.8314 44.8592 100.495 44.5632C101.167 44.2672 101.927 44.1192 102.775 44.1192C103.447 44.1192 104.071 44.2352 104.647 44.4672C105.223 44.6992 105.723 45.0392 106.147 45.4872C106.571 45.9272 106.903 46.4712 107.143 47.1192C107.391 47.7672 107.515 48.5112 107.515 49.3512C107.515 49.5272 107.491 49.6472 107.443 49.7112C107.395 49.7752 107.315 49.8072 107.203 49.8072H98.5154ZM119.242 56.2512H118.15C118.038 56.2512 117.95 56.2192 117.886 56.1552C117.822 56.0832 117.77 56.0152 117.73 55.9512L114.106 50.6592C114.074 50.8032 114.014 50.9432 113.926 51.0792L110.47 55.9512C110.414 56.0232 110.354 56.0912 110.29 56.1552C110.234 56.2192 110.158 56.2512 110.062 56.2512H109.03L113.374 50.1432L109.198 44.3112H110.29C110.402 44.3112 110.486 44.3352 110.542 44.3832C110.598 44.4312 110.646 44.4872 110.686 44.5512L114.19 49.6032C114.206 49.5392 114.23 49.4712 114.262 49.3992C114.302 49.3272 114.342 49.2552 114.382 49.1832L117.658 44.5632C117.706 44.4912 117.758 44.4312 117.814 44.3832C117.87 44.3352 117.942 44.3112 118.03 44.3112H119.074L114.91 50.0712L119.242 56.2512Z" fill="#007A65"/>
</svg>
