<svg width="352" height="236" viewBox="0 0 352 236" fill="none" xmlns="http://www.w3.org/2000/svg">
<path d="M323.235 34.2045L271.776 41.0001L278.045 89.0131L329.504 82.2175L323.235 34.2045Z" fill="#F5F5F5"/>
<path d="M304.738 49.088C304.044 49.2065 303.4 49.5274 302.886 50.0108C302.372 50.4942 302.011 51.1188 301.847 51.807C301.683 52.4952 301.724 53.2167 301.965 53.8818C302.205 54.5469 302.635 55.1262 303.2 55.5478C303.765 55.9694 304.441 56.2148 305.143 56.2533C305.846 56.2918 306.544 56.1219 307.152 55.7645C307.759 55.4072 308.249 54.8782 308.56 54.2434C308.871 53.6086 308.989 52.8958 308.901 52.1938C308.757 51.2273 308.238 50.3577 307.458 49.7755C306.677 49.1933 305.699 48.946 304.738 49.088Z" fill="#E0E0E0"/>
<path d="M320.226 39.9218L276.658 45.4489C276.695 45.3922 276.245 45.9634 276.437 45.7274V45.784V45.869L276.461 46.0389L276.503 46.3834L276.592 47.0678L276.761 48.4366C276.88 49.3429 276.994 50.2476 277.104 51.1506C277.335 52.9537 277.562 54.7394 277.784 56.5078C278.232 60.0447 278.67 63.506 279.098 66.8918L281.515 85.8568V86.0645L281.731 86.0362L313.36 81.8967L322.23 80.712L324.544 80.3958L325.131 80.3061L325.318 80.273C325.246 80.2666 325.174 80.2666 325.102 80.273L324.488 80.3391L322.141 80.6176L313.224 81.6938L303.485 82.9068L325.276 80.122C325.282 80.1683 325.291 80.2141 325.304 80.2589C325.309 80.1992 325.309 80.1392 325.304 80.0795L325.248 79.5414C325.187 79.0364 325.107 78.3284 325.004 77.4127C324.779 75.5247 324.45 72.7635 324.032 69.2802C323.169 62.2002 321.939 52.1607 320.461 40.087L320.432 39.884L320.226 39.9218ZM312.576 64.1448L306.545 73.4526L292.864 59.118L281.886 85.2998C281.173 79.5745 280.398 73.3771 279.582 66.8305C279.159 63.4604 278.724 59.9991 278.277 56.4465C278.055 54.6781 277.831 52.8923 277.606 51.0893C277.493 50.1878 277.376 49.2815 277.263 48.3706L277.09 47.0065L277.005 46.3221L276.958 45.9775V45.8737L320.085 40.356C321.634 52.274 322.901 62.2049 323.84 69.1905L324.924 77.3561L325.22 79.5178C325.257 79.7491 325.285 79.9332 325.304 80.0748C325.304 80.0748 325.304 80.1031 325.304 80.122L312.576 64.1448Z" fill="#E0E0E0"/>
<path d="M64.2392 173.065L27.749 167.069L22.218 201.111L58.7082 207.107L64.2392 173.065Z" fill="#F5F5F5"/>
<path d="M48.5665 178.364C48.0698 178.304 47.5665 178.392 47.1191 178.617C46.6717 178.843 46.3 179.195 46.0501 179.631C45.8003 180.067 45.6833 180.567 45.7137 181.07C45.7441 181.572 45.9206 182.054 46.2212 182.456C46.5218 182.858 46.9333 183.163 47.4045 183.332C47.8758 183.501 48.386 183.527 48.8719 183.407C49.3577 183.287 49.7977 183.026 50.1373 182.656C50.4769 182.287 50.701 181.825 50.7818 181.328C50.8782 180.64 50.6992 179.941 50.2838 179.385C49.8685 178.83 49.2509 178.462 48.5665 178.364Z" fill="#E0E0E0"/>
<path d="M60.9708 175.272L30.145 170.18L29.9385 170.326V170.373V170.434V170.557L29.901 170.798L29.8212 171.27L29.6288 172.28C29.5208 172.922 29.4176 173.564 29.3143 174.201C29.1078 175.475 28.9029 176.734 28.6995 177.977C28.2959 180.479 27.9001 182.924 27.5121 185.312C26.7517 190.074 26.0149 194.582 25.3438 198.712V198.858H25.4939L47.8717 202.488L54.128 203.479L55.7706 203.729L56.1883 203.791H56.3244L56.1743 203.758L55.7425 203.677L54.0763 203.385L47.7966 202.313L40.9115 201.157L56.3197 203.725C56.3171 203.758 56.3171 203.791 56.3197 203.824C56.3326 203.784 56.342 203.743 56.3479 203.701C56.3479 203.602 56.3901 203.479 56.4183 203.319C56.4793 202.965 56.5685 202.464 56.6811 201.818C56.9064 200.477 57.2349 198.537 57.6526 196.074C58.4834 191.084 59.6661 183.976 61.0835 175.442L61.1069 175.296L60.9708 175.272ZM50.8755 190.216L44.8915 195.356L38.4569 182.801L25.7098 198.419C26.3716 194.374 27.0897 189.989 27.8453 185.359L29.0421 178.024C29.2486 176.766 29.4551 175.507 29.6616 174.248C29.7649 173.611 29.8681 172.969 29.9761 172.327L30.1309 171.336L30.2107 170.864L30.2483 170.623V170.548L60.7549 175.542C59.4126 183.981 58.3003 191.018 57.5118 195.965C57.127 198.448 56.8219 200.402 56.6107 201.752C56.5122 202.412 56.4371 202.927 56.3808 203.286L56.3244 203.687C56.3244 203.687 56.3244 203.687 56.3244 203.72L50.8755 190.216Z" fill="#E0E0E0"/>
<path d="M332.489 97.2556H259.363C257.323 97.2556 255.669 98.9187 255.669 100.97V143.724C255.669 145.776 257.323 147.439 259.363 147.439H332.489C334.529 147.439 336.183 145.776 336.183 143.724V100.97C336.183 98.9187 334.529 97.2556 332.489 97.2556Z" fill="#E0E0E0"/>
<path d="M300.261 127.393C302.657 124.984 302.657 121.078 300.261 118.669C297.866 116.26 293.982 116.26 291.586 118.669C289.191 121.078 289.191 124.984 291.586 127.393C293.982 129.803 297.866 129.803 300.261 127.393Z" fill="#EBEBEB"/>
<path d="M294.445 124.835V121.195C294.446 121.155 294.458 121.116 294.478 121.082C294.498 121.048 294.527 121.019 294.561 120.999C294.595 120.978 294.634 120.967 294.674 120.966C294.713 120.965 294.753 120.974 294.788 120.992L298.026 122.829C298.063 122.848 298.093 122.878 298.114 122.914C298.135 122.949 298.146 122.99 298.146 123.032C298.146 123.073 298.135 123.114 298.114 123.15C298.093 123.185 298.063 123.215 298.026 123.234L294.793 125.038C294.757 125.059 294.717 125.07 294.676 125.07C294.635 125.07 294.595 125.059 294.56 125.039C294.524 125.018 294.495 124.988 294.475 124.952C294.455 124.916 294.445 124.876 294.445 124.835Z" fill="white"/>
<path d="M260.269 141.676V141.808H259.663V141.704L259.992 141.392C260.072 141.312 260.086 141.265 260.086 141.218C260.086 141.17 260.034 141.1 259.931 141.1C259.894 141.098 259.858 141.105 259.825 141.12C259.791 141.135 259.762 141.157 259.738 141.185L259.63 141.104C259.669 141.059 259.717 141.023 259.772 140.999C259.826 140.976 259.886 140.965 259.945 140.968C260.123 140.968 260.241 141.057 260.241 141.204C260.239 141.255 260.226 141.306 260.203 141.351C260.179 141.397 260.146 141.437 260.104 141.468L259.884 141.676H260.269Z" fill="white"/>
<path d="M260.353 141.265C260.352 141.252 260.354 141.239 260.359 141.227C260.363 141.215 260.37 141.204 260.379 141.195C260.387 141.186 260.398 141.178 260.41 141.173C260.421 141.168 260.434 141.166 260.447 141.166C260.473 141.166 260.498 141.176 260.516 141.195C260.535 141.213 260.545 141.239 260.545 141.265C260.545 141.291 260.535 141.316 260.516 141.335C260.498 141.354 260.473 141.364 260.447 141.364C260.434 141.364 260.421 141.361 260.41 141.356C260.398 141.351 260.387 141.344 260.379 141.335C260.37 141.325 260.363 141.314 260.359 141.302C260.354 141.29 260.352 141.278 260.353 141.265ZM260.353 141.737C260.352 141.724 260.354 141.711 260.359 141.699C260.363 141.687 260.37 141.676 260.379 141.667C260.387 141.658 260.398 141.65 260.41 141.645C260.421 141.64 260.434 141.638 260.447 141.638C260.46 141.637 260.473 141.639 260.485 141.644C260.498 141.649 260.509 141.656 260.518 141.665C260.527 141.675 260.534 141.686 260.539 141.698C260.544 141.711 260.546 141.724 260.545 141.737C260.545 141.75 260.543 141.762 260.538 141.774C260.533 141.786 260.525 141.797 260.516 141.805C260.507 141.814 260.496 141.821 260.484 141.826C260.472 141.83 260.459 141.832 260.447 141.831C260.432 141.833 260.418 141.83 260.405 141.825C260.391 141.819 260.38 141.811 260.37 141.799C260.361 141.788 260.355 141.775 260.352 141.761C260.349 141.747 260.349 141.732 260.353 141.718V141.737Z" fill="white"/>
<path d="M260.949 140.977V141.808H260.799V141.128H260.625V140.996L260.949 140.977Z" fill="white"/>
<path d="M261.822 141.6H261.676V141.789H261.531V141.6H261.062V141.491L261.47 140.958H261.634L261.249 141.468H261.521V141.303H261.662V141.468H261.808L261.822 141.6Z" fill="white"/>
<path d="M325.52 141.265H263.165V141.595H325.52V141.265Z" fill="white"/>
<path d="M282.604 140.92H263.118V141.808H282.604V140.92Z" fill="#EBEBEB"/>
<path d="M283.233 141.43C283.233 141.617 283.178 141.799 283.075 141.955C282.972 142.11 282.825 142.231 282.654 142.302C282.482 142.374 282.294 142.392 282.111 142.356C281.929 142.32 281.762 142.23 281.631 142.098C281.5 141.966 281.41 141.797 281.374 141.614C281.338 141.431 281.356 141.241 281.427 141.069C281.498 140.896 281.619 140.749 281.773 140.645C281.927 140.541 282.109 140.486 282.295 140.486C282.544 140.486 282.782 140.586 282.958 140.763C283.134 140.94 283.233 141.18 283.233 141.43Z" fill="#EBEBEB"/>
<path d="M327.092 141.421C327.092 141.459 327.083 141.496 327.067 141.531C327.052 141.566 327.029 141.596 327.001 141.622C326.973 141.647 326.939 141.666 326.903 141.678C326.867 141.69 326.829 141.694 326.792 141.69C326.566 141.69 326.435 141.543 326.435 141.279C326.428 141.223 326.434 141.165 326.451 141.111C326.468 141.057 326.497 141.007 326.536 140.965C326.574 140.924 326.621 140.891 326.673 140.869C326.726 140.848 326.782 140.838 326.839 140.84C326.914 140.838 326.988 140.856 327.054 140.892L326.998 141.01C326.953 140.979 326.898 140.964 326.843 140.968C326.688 140.968 326.59 141.067 326.59 141.251C326.617 141.22 326.651 141.195 326.69 141.18C326.728 141.164 326.769 141.158 326.81 141.161C326.846 141.158 326.882 141.162 326.916 141.174C326.95 141.185 326.982 141.204 327.008 141.228C327.035 141.253 327.056 141.282 327.07 141.316C327.085 141.349 327.092 141.384 327.092 141.421ZM326.947 141.421C326.947 141.331 326.881 141.279 326.782 141.279C326.762 141.276 326.741 141.278 326.721 141.284C326.701 141.29 326.683 141.3 326.667 141.313C326.651 141.326 326.638 141.343 326.629 141.361C326.62 141.38 326.614 141.4 326.613 141.421C326.613 141.501 326.674 141.558 326.782 141.558C326.89 141.558 326.947 141.515 326.947 141.43V141.421Z" fill="white"/>
<path d="M327.167 141.128C327.166 141.115 327.168 141.102 327.173 141.09C327.177 141.078 327.184 141.067 327.193 141.058C327.202 141.049 327.212 141.042 327.224 141.037C327.236 141.031 327.248 141.029 327.261 141.029C327.287 141.029 327.312 141.039 327.331 141.058C327.349 141.077 327.36 141.102 327.36 141.128C327.36 141.154 327.349 141.18 327.331 141.198C327.312 141.217 327.287 141.227 327.261 141.227C327.248 141.227 327.236 141.225 327.224 141.22C327.212 141.214 327.202 141.207 327.193 141.198C327.184 141.189 327.177 141.178 327.173 141.166C327.168 141.154 327.166 141.141 327.167 141.128ZM327.167 141.6C327.166 141.587 327.168 141.574 327.173 141.562C327.177 141.55 327.184 141.539 327.193 141.53C327.202 141.521 327.212 141.514 327.224 141.509C327.236 141.503 327.248 141.501 327.261 141.501C327.274 141.5 327.287 141.502 327.299 141.507C327.312 141.512 327.323 141.519 327.332 141.528C327.341 141.538 327.349 141.549 327.353 141.561C327.358 141.574 327.36 141.587 327.36 141.6C327.36 141.613 327.357 141.625 327.352 141.637C327.347 141.649 327.34 141.66 327.33 141.668C327.321 141.677 327.31 141.684 327.298 141.689C327.286 141.693 327.274 141.695 327.261 141.694C327.248 141.695 327.236 141.693 327.224 141.689C327.213 141.684 327.202 141.677 327.193 141.668C327.184 141.659 327.177 141.649 327.173 141.637C327.168 141.625 327.166 141.613 327.167 141.6Z" fill="white"/>
<path d="M327.458 141.265C327.458 140.991 327.604 140.84 327.801 140.84C327.998 140.84 328.144 140.991 328.144 141.265C328.144 141.539 327.998 141.69 327.801 141.69C327.604 141.69 327.458 141.539 327.458 141.265ZM327.994 141.265C327.994 141.067 327.914 140.972 327.801 140.972C327.688 140.972 327.613 141.067 327.613 141.265C327.613 141.463 327.688 141.558 327.801 141.558C327.914 141.558 327.994 141.463 327.994 141.265Z" fill="white"/>
<path d="M328.247 141.265C328.247 140.991 328.397 140.84 328.59 140.84C328.782 140.84 328.937 140.991 328.937 141.265C328.937 141.539 328.787 141.69 328.59 141.69C328.393 141.69 328.247 141.539 328.247 141.265ZM328.782 141.265C328.782 141.067 328.702 140.972 328.59 140.972C328.477 140.972 328.402 141.067 328.402 141.265C328.402 141.463 328.477 141.558 328.59 141.558C328.702 141.558 328.782 141.463 328.782 141.265Z" fill="white"/>
<path d="M330.284 141.213H329.955V140.368H330.795V140.698H330.284V141.213Z" fill="white"/>
<path d="M330.795 142.313H329.955V141.468H330.284V141.982H330.795V142.313Z" fill="white"/>
<path d="M332.123 142.313H331.283V141.982H331.795V141.463H332.123V142.313Z" fill="white"/>
<path d="M332.123 141.213H331.795V140.698H331.283V140.368H332.123V141.213Z" fill="white"/>
<path d="M321.493 102.136C322.057 102.068 322.624 102.036 323.192 102.042H323.281V102.136C323.281 102.783 323.281 103.514 323.281 104.303V104.581L323.084 104.383L322.854 104.156L322.282 103.576H322.437L321.535 104.373L321.362 104.524V104.312C321.362 103.642 321.395 103.085 321.413 102.707C321.41 102.519 321.426 102.331 321.46 102.146C321.496 102.353 321.513 102.563 321.512 102.773C321.512 103.156 321.554 103.684 321.564 104.312L321.395 104.237L322.282 103.42L322.361 103.349L322.437 103.425L323.014 104L323.239 104.232L323.042 104.312C323.042 103.524 323.042 102.792 323.042 102.146L323.136 102.235C322.202 102.202 321.521 102.155 321.493 102.136Z" fill="white"/>
<path d="M327.726 102.424C327.6 102.608 327.463 102.784 327.317 102.953C327.04 103.297 326.623 103.816 326.111 104.369L325.923 104.586V104.312C325.923 103.972 325.923 103.609 325.923 103.236V103.132L325.956 103.212L325.205 102.481L325.008 102.287H325.281C326.027 102.287 326.689 102.334 327.092 102.363C327.306 102.365 327.519 102.381 327.73 102.41C327.73 102.41 327.43 102.41 326.994 102.452C326.557 102.495 325.966 102.504 325.281 102.504L325.356 102.315C325.595 102.547 325.825 102.787 326.116 103.042L326.149 103.075V103.231C326.149 103.604 326.149 103.967 326.149 104.307L325.961 104.232C326.43 103.708 326.867 103.288 327.191 102.953C327.515 102.618 327.702 102.424 327.726 102.424Z" fill="white"/>
<path d="M327.726 102.424C327.754 102.485 327.393 102.693 326.923 102.896C326.649 103.047 326.344 103.133 326.032 103.146C326.032 103.085 326.365 102.877 326.834 102.674C327.108 102.523 327.414 102.437 327.726 102.424Z" fill="white"/>
<path d="M330.767 102.136C330.767 102.136 330.875 102.098 331.072 102.136C331.355 102.185 331.609 102.338 331.786 102.566C331.922 102.735 332.012 102.937 332.049 103.152C332.086 103.366 332.068 103.587 331.997 103.793C331.908 104.049 331.742 104.271 331.522 104.428C331.302 104.585 331.039 104.669 330.77 104.669C330.5 104.669 330.237 104.585 330.017 104.428C329.797 104.271 329.631 104.049 329.542 103.793C329.47 103.587 329.451 103.367 329.487 103.152C329.523 102.937 329.613 102.736 329.749 102.566C329.926 102.339 330.18 102.186 330.462 102.136C330.659 102.103 330.767 102.136 330.767 102.136C330.767 102.136 330.659 102.16 330.486 102.216C330.241 102.296 330.027 102.451 329.875 102.66C329.768 102.811 329.7 102.987 329.676 103.172C329.652 103.356 329.674 103.543 329.739 103.717C329.818 103.927 329.959 104.109 330.142 104.236C330.326 104.364 330.544 104.433 330.767 104.433C330.991 104.433 331.209 104.364 331.392 104.236C331.576 104.109 331.716 103.927 331.795 103.717C331.86 103.543 331.882 103.356 331.858 103.172C331.835 102.987 331.766 102.811 331.659 102.66C331.507 102.451 331.293 102.296 331.049 102.216C330.88 102.16 330.767 102.155 330.767 102.136Z" fill="white"/>
<path d="M331.176 103.84C331.133 103.882 330.866 103.689 330.584 103.406L330.551 103.373V103.316C330.551 102.91 330.603 102.584 330.664 102.584C330.725 102.584 330.781 102.91 330.781 103.316L330.748 103.231C331.03 103.547 331.222 103.812 331.176 103.84Z" fill="white"/>
<path d="M301.603 103.779C301.603 103.84 293.328 103.892 283.125 103.892C272.922 103.892 264.643 103.84 264.643 103.779C264.643 103.717 272.917 103.661 283.125 103.661C293.333 103.661 301.603 103.713 301.603 103.779Z" fill="white"/>
<path d="M261.442 105.247C262.248 105.247 262.902 104.589 262.902 103.779C262.902 102.968 262.248 102.311 261.442 102.311C260.636 102.311 259.982 102.968 259.982 103.779C259.982 104.589 260.636 105.247 261.442 105.247Z" fill="white"/>
<path d="M290.081 20.9521H52.7012V192.798H290.081V20.9521Z" fill="white"/>
<path d="M289.785 20.9521H52.4058V33.6536H289.785V20.9521Z" fill="#DBDBDB"/>
<path d="M60.8115 27.5318C60.794 27.8365 60.6882 28.1295 60.5071 28.3744C60.3259 28.6194 60.0774 28.8056 59.7922 28.9101C59.507 29.0145 59.1976 29.0327 58.9022 28.9623C58.6068 28.8919 58.3385 28.736 58.1302 28.5139C57.922 28.2917 57.783 28.0131 57.7305 27.7125C57.6779 27.4118 57.7141 27.1023 57.8346 26.8221C57.9551 26.5419 58.1545 26.3033 58.4083 26.1358C58.6621 25.9684 58.9591 25.8793 59.2627 25.8798C59.4722 25.8859 59.6786 25.9335 59.8699 26.0198C60.0612 26.1061 60.2336 26.2296 60.3775 26.383C60.5213 26.5364 60.6337 26.7168 60.7081 26.9139C60.7826 27.1111 60.8177 27.321 60.8115 27.5318Z" fill="#263238"/>
<path d="M66.5751 27.5318C66.5577 27.8363 66.452 28.1291 66.2711 28.374C66.0901 28.6188 65.8419 28.805 65.5569 28.9097C65.272 29.0143 64.9628 29.0327 64.6676 28.9627C64.3723 28.8926 64.1039 28.7372 63.8955 28.5156C63.6871 28.2939 63.5477 28.0157 63.4947 27.7154C63.4416 27.415 63.4771 27.1056 63.5969 26.8253C63.7166 26.545 63.9154 26.3061 64.1685 26.1381C64.4217 25.9701 64.7183 25.8803 65.0216 25.8798C65.2316 25.8853 65.4385 25.9324 65.6303 26.0185C65.8221 26.1045 65.9952 26.2279 66.1395 26.3813C66.2838 26.5348 66.3966 26.7155 66.4713 26.9129C66.5461 27.1103 66.5814 27.3206 66.5751 27.5318Z" fill="#263238"/>
<path d="M72.3334 27.5318C72.316 27.8365 72.2102 28.1295 72.029 28.3744C71.8479 28.6194 71.5993 28.8056 71.3141 28.9101C71.0289 29.0145 70.7195 29.0327 70.4242 28.9623C70.1288 28.8919 69.8604 28.736 69.6522 28.5139C69.444 28.2917 69.305 28.0131 69.2524 27.7125C69.1999 27.4118 69.2361 27.1023 69.3566 26.8221C69.477 26.5419 69.6765 26.3033 69.9303 26.1358C70.1841 25.9684 70.4811 25.8793 70.7846 25.8798C70.9944 25.8853 71.201 25.9324 71.3926 26.0186C71.5842 26.1047 71.7569 26.2281 71.9009 26.3816C72.0448 26.5352 72.1571 26.7158 72.2314 26.9132C72.3056 27.1106 72.3403 27.3208 72.3334 27.5318Z" fill="#263238"/>
<path d="M154.753 47.3322C154.753 47.4218 149.567 47.4926 143.175 47.4926C136.782 47.4926 131.596 47.4218 131.596 47.3322C131.596 47.2425 136.759 47.167 143.175 47.167C149.59 47.167 154.753 47.2378 154.753 47.3322Z" fill="#263238"/>
<path d="M185.555 47.3322C185.555 47.4218 180.369 47.4926 173.977 47.4926C167.585 47.4926 162.398 47.4218 162.398 47.3322C162.398 47.2425 167.561 47.167 173.977 47.167C180.393 47.167 185.555 47.2378 185.555 47.3322Z" fill="#263238"/>
<path d="M216.362 47.3322C216.362 47.4218 211.176 47.4926 204.784 47.4926C198.392 47.4926 193.206 47.4218 193.206 47.3322C193.206 47.2425 198.368 47.167 204.784 47.167C211.2 47.167 216.362 47.2378 216.362 47.3322Z" fill="#263238"/>
<path d="M247.432 47.3322C247.432 47.4218 242.27 47.4926 235.854 47.4926C229.438 47.4926 224.275 47.4218 224.275 47.3322C224.275 47.2425 229.462 47.167 235.854 47.167C242.246 47.167 247.432 47.2378 247.432 47.3322Z" fill="#263238"/>
<path d="M274.429 51.2545C274.429 51.2545 274.626 51.2545 274.983 51.1554C275.507 51.0127 275.974 50.7071 276.315 50.2822C276.567 49.9716 276.746 49.6089 276.841 49.2202C276.933 48.7431 276.962 48.2558 276.926 47.7711C276.86 46.7374 277.156 45.4111 276.278 44.4105C276.073 44.1636 275.822 43.9601 275.538 43.8118C275.254 43.6636 274.944 43.5734 274.626 43.5467C273.964 43.5467 273.218 43.5467 272.5 43.5467H267.806H257.012C256.556 43.5557 256.111 43.6932 255.729 43.9435C255.346 44.1938 255.041 44.5469 254.848 44.9627C254.65 45.3871 254.556 45.8535 254.576 46.3221V47.7806C254.546 48.2417 254.574 48.7048 254.66 49.1588C254.767 49.5829 254.977 49.9738 255.271 50.2963C255.539 50.6006 255.877 50.834 256.256 50.976C256.651 51.08 257.06 51.1199 257.467 51.094L266.286 51.127L272.232 51.179L273.851 51.212H274.269C274.368 51.212 274.415 51.212 274.415 51.212C274.366 51.2183 274.317 51.2183 274.269 51.212H273.851L272.232 51.245L266.286 51.297L257.467 51.33C257.031 51.3628 256.594 51.3213 256.172 51.2073C255.732 51.0597 255.337 50.8032 255.022 50.4615C254.691 50.1025 254.456 49.666 254.337 49.1918C254.275 48.9481 254.243 48.6976 254.243 48.4461C254.243 48.2054 254.243 47.9741 254.243 47.7286V46.341C254.219 45.8219 254.322 45.3048 254.543 44.8353C254.76 44.367 255.103 43.9694 255.534 43.6881C255.965 43.4068 256.465 43.2531 256.979 43.2446H267.774H272.467C273.208 43.2446 273.912 43.2446 274.612 43.2446C274.958 43.2758 275.294 43.3752 275.602 43.5372C275.909 43.6992 276.182 43.9205 276.405 44.1886C276.825 44.6973 277.06 45.335 277.071 45.9964C277.071 46.5958 277.071 47.167 277.071 47.7003C277.102 48.2003 277.064 48.7022 276.958 49.1918C276.851 49.5991 276.654 49.9767 276.381 50.2963C276.018 50.728 275.523 51.0267 274.973 51.1459C274.798 51.2102 274.615 51.2468 274.429 51.2545Z" fill="#263238"/>
<path d="M138.557 92.276H74.746C72.5143 92.276 70.7051 94.0955 70.7051 96.3399V103.038C70.7051 105.282 72.5143 107.102 74.746 107.102H138.557C140.788 107.102 142.598 105.282 142.598 103.038V96.3399C142.598 94.0955 140.788 92.276 138.557 92.276Z" fill="#DBDBDB"/>
<path d="M52.4059 20.9521L289.79 20.8341H289.912V20.9521C289.912 72.806 289.912 131.211 289.912 192.76V192.916H289.781L52.3965 192.892H52.2886V192.784C52.3543 88.4717 52.3965 21.83 52.3965 20.9332C52.3965 21.83 52.4435 88.4811 52.5045 192.784L52.3965 192.675L289.781 192.647L289.649 192.784V192.76C289.649 131.192 289.649 72.7871 289.649 20.9521L289.771 21.0748L52.4059 20.9521Z" fill="#263238"/>
<path d="M269.543 123.069C269.543 123.069 269.543 122.767 269.543 122.191C269.543 121.616 269.543 120.775 269.543 119.652C269.543 117.419 269.543 114.134 269.543 109.919C269.543 101.494 269.515 89.3449 269.491 74.4155L269.585 74.5099L184.448 74.5382L184.57 74.4155C184.57 91.6246 184.57 108.079 184.57 123.065L184.453 122.951L245.659 123.008L263.23 123.041H267.924H269.135H269.548H267.952H263.291L245.743 123.074L184.448 123.192H184.335V123.074C184.335 108.088 184.335 91.6341 184.335 74.4249V74.3022H184.448L269.524 74.3305H269.618V74.4249C269.618 89.3779 269.581 101.551 269.571 109.985C269.571 114.196 269.571 117.467 269.571 119.694C269.571 120.804 269.571 121.649 269.571 122.22C269.571 122.791 269.543 123.069 269.543 123.069Z" fill="#FF725E"/>
<path d="M267.703 74.3494L267.497 74.491L266.887 74.8828L264.54 76.3649C262.489 77.644 259.509 79.4848 255.815 81.7315C248.432 86.2391 238.168 92.3657 226.716 98.9501C215.265 105.534 204.817 111.321 197.219 115.47C193.417 117.537 190.334 119.194 188.198 120.322L185.734 121.62L185.091 121.955C185.02 121.994 184.946 122.028 184.871 122.059C184.939 122.013 185.009 121.97 185.082 121.932L185.711 121.578L188.151 120.237L197.12 115.3C204.7 111.132 215.138 105.317 226.58 98.733C238.023 92.1486 248.292 86.0503 255.679 81.5852L264.446 76.2799L266.83 74.8403L267.454 74.4722C267.628 74.3872 267.703 74.3494 267.703 74.3494Z" fill="#FF725E"/>
<path d="M268.562 123.069C268.529 123.126 249.859 112.374 226.871 99.0586C203.883 85.7435 185.269 74.8922 185.302 74.8356C185.335 74.779 204.001 85.5264 226.993 98.8463C249.986 112.166 268.595 123.008 268.562 123.069Z" fill="#FF725E"/>
<path d="M267.811 147.264C267.811 147.358 249.216 147.434 226.289 147.434C203.362 147.434 184.758 147.358 184.758 147.264C184.758 147.17 203.348 147.089 226.289 147.089C249.23 147.089 267.811 147.165 267.811 147.264Z" fill="#263238"/>
<path d="M267.811 152.324C267.811 152.418 249.216 152.494 226.289 152.494C203.362 152.494 184.758 152.418 184.758 152.324C184.758 152.229 203.348 152.149 226.289 152.149C249.23 152.149 267.811 152.229 267.811 152.324Z" fill="#263238"/>
<path d="M221.802 164.926C221.802 165.016 213.65 165.087 203.601 165.087C193.553 165.087 185.396 165.016 185.396 164.926C185.396 164.837 193.544 164.771 203.601 164.771C213.659 164.771 221.802 164.841 221.802 164.926Z" fill="#263238"/>
<path d="M257.284 158.823C257.284 158.908 241.19 158.979 221.342 158.979C201.494 158.979 185.396 158.908 185.396 158.823C185.396 158.738 201.485 158.663 221.342 158.663C241.2 158.663 257.284 158.734 257.284 158.823Z" fill="#263238"/>
<path d="M278.751 174.291C278.751 174.291 278.751 174.055 278.751 173.606C278.751 173.158 278.751 172.492 278.751 171.619C278.751 169.868 278.751 167.286 278.751 163.954C278.751 157.299 278.728 147.632 278.709 135.587L278.793 135.667L175.423 135.709L175.545 135.587C175.545 149.095 175.545 162.165 175.545 174.291L175.427 174.173L249.493 174.225L271.031 174.258H276.799H278.291H278.803H278.305H276.827H271.082L249.573 174.291L175.418 174.347H175.301V174.229C175.301 162.104 175.301 149.034 175.301 135.525V135.464H175.427L278.798 135.502H278.878V135.587C278.878 147.651 278.845 157.336 278.836 164.006C278.836 167.31 278.836 169.901 278.836 171.648C278.836 172.516 278.836 173.177 278.836 173.625C278.836 174.074 278.751 174.291 278.751 174.291Z" fill="#263238"/>
<path d="M74.4736 52.8026C77.3793 52.8026 79.7349 50.5394 79.7349 47.7475C79.7349 44.9557 77.3793 42.6924 74.4736 42.6924C71.5679 42.6924 69.2124 44.9557 69.2124 47.7475C69.2124 50.5394 71.5679 52.8026 74.4736 52.8026Z" fill="#C09B6F"/>
<path d="M72.6481 108.98H35.4722V134.992H72.6481V108.98Z" fill="#C09B6F"/>
<path d="M72.6434 108.98C72.6856 109.037 64.4066 114.956 54.161 122.196C43.9155 129.437 35.5707 135.275 35.5285 135.219C35.4862 135.162 43.7653 129.243 54.0202 122.003C64.2751 114.762 72.6058 108.923 72.6434 108.98Z" fill="#263238"/>
<path d="M72.6432 134.992L72.5447 134.935L72.2584 134.747L71.1789 134.006L67.2412 131.216L54.2876 122.007L41.3809 112.761L37.4854 109.929L36.4341 109.145C36.3215 109.065 36.2323 108.994 36.1619 108.938L36.0728 108.862C36.0728 108.862 36.1103 108.862 36.176 108.919L36.4623 109.108L37.5418 109.849L41.4795 112.614L54.4425 121.828L67.3491 131.093L71.2446 133.925L72.2959 134.704L72.5681 134.912C72.6197 134.959 72.6479 134.992 72.6432 134.992Z" fill="#263238"/>
<path d="M165.252 166.522H66.2837V223.081H165.252V166.522Z" fill="#FAFAFA"/>
<path d="M165.257 223.081C165.257 223.081 165.257 222.732 165.257 222.067C165.257 221.401 165.257 220.405 165.257 219.112C165.257 216.516 165.257 212.702 165.233 207.784C165.233 197.99 165.205 183.863 165.186 166.503L165.28 166.597L66.3166 166.625L66.4386 166.503C66.4386 186.511 66.4386 205.641 66.4386 223.062L66.326 222.949L137.524 223.001L157.963 223.034H163.412H164.82H165.29H164.82H163.412H157.991L137.575 223.062L66.3025 223.119H66.1758V223.006C66.1758 205.584 66.1758 186.454 66.1758 166.446V166.323H66.3072L165.271 166.352H165.365V166.446C165.341 183.83 165.327 197.98 165.313 207.784C165.313 212.678 165.313 216.483 165.29 219.074C165.29 220.363 165.29 221.344 165.29 222.01C165.29 222.675 165.257 223.081 165.257 223.081Z" fill="#263238"/>
<path d="M106.44 175.749C106.44 175.815 99.7141 175.872 91.421 175.872C83.1279 175.872 76.4023 175.815 76.4023 175.749C76.4023 175.683 83.1232 175.626 91.421 175.626C99.7188 175.626 106.44 175.683 106.44 175.749Z" fill="#EBEBEB"/>
<path d="M122.162 181.168C122.162 181.239 115.437 181.29 107.144 181.29C98.8506 181.29 92.125 181.239 92.125 181.168C92.125 181.097 98.8459 181.045 107.144 181.045C115.441 181.045 122.162 181.102 122.162 181.168Z" fill="#EBEBEB"/>
<path d="M154.88 175.749C154.88 175.815 148.159 175.872 139.861 175.872C131.563 175.872 124.842 175.815 124.842 175.749C124.842 175.683 131.568 175.626 139.861 175.626C148.154 175.626 154.88 175.683 154.88 175.749Z" fill="#EBEBEB"/>
<path d="M119.211 175.744C117.863 175.866 116.509 175.907 115.156 175.867C113.803 175.907 112.449 175.866 111.101 175.744C112.449 175.623 113.803 175.582 115.156 175.622C116.509 175.582 117.863 175.623 119.211 175.744Z" fill="#EBEBEB"/>
<path d="M85.3904 181.168C84.0425 181.292 82.6882 181.333 81.3353 181.29C79.9824 181.333 78.6282 181.292 77.2803 181.168C78.6284 181.046 79.9824 181.005 81.3353 181.045C82.6882 181.005 84.0423 181.046 85.3904 181.168Z" fill="#EBEBEB"/>
<path d="M133.854 180.941C132.556 181.063 131.252 181.104 129.949 181.064C128.648 181.104 127.345 181.063 126.049 180.941C127.345 180.82 128.648 180.779 129.949 180.818C131.252 180.779 132.556 180.82 133.854 180.941Z" fill="#EBEBEB"/>
<path d="M106.44 188.163C106.44 188.229 99.7141 188.286 91.421 188.286C83.1279 188.286 76.4023 188.229 76.4023 188.163C76.4023 188.097 83.1232 188.04 91.421 188.04C99.7188 188.04 106.44 188.092 106.44 188.163Z" fill="#EBEBEB"/>
<path d="M122.162 193.581C122.162 193.652 115.437 193.704 107.144 193.704C98.8506 193.704 92.125 193.652 92.125 193.581C92.125 193.511 98.8459 193.459 107.144 193.459C115.441 193.459 122.162 193.52 122.162 193.581Z" fill="#EBEBEB"/>
<path d="M154.88 188.163C154.88 188.229 148.159 188.286 139.861 188.286C131.563 188.286 124.842 188.229 124.842 188.163C124.842 188.097 131.568 188.04 139.861 188.04C148.154 188.04 154.88 188.092 154.88 188.163Z" fill="#EBEBEB"/>
<path d="M119.211 188.158C117.863 188.28 116.509 188.321 115.156 188.281C113.803 188.321 112.449 188.28 111.101 188.158C112.449 188.037 113.803 187.996 115.156 188.035C116.509 187.996 117.863 188.037 119.211 188.158Z" fill="#EBEBEB"/>
<path d="M85.3904 193.581C84.0425 193.706 82.6882 193.747 81.3353 193.704C79.9824 193.747 78.6282 193.706 77.2803 193.581C78.6284 193.46 79.9824 193.419 81.3353 193.459C82.6882 193.419 84.0423 193.46 85.3904 193.581Z" fill="#EBEBEB"/>
<path d="M133.854 193.355C132.556 193.476 131.252 193.517 129.949 193.478C128.648 193.517 127.345 193.476 126.049 193.355C127.345 193.23 128.648 193.189 129.949 193.232C131.252 193.19 132.556 193.231 133.854 193.355Z" fill="#EBEBEB"/>
<path d="M106.717 209.681C106.717 209.752 99.9962 209.804 91.6984 209.804C83.4005 209.804 76.6797 209.752 76.6797 209.681C76.6797 209.61 83.4052 209.559 91.6984 209.559C99.9915 209.559 106.717 209.615 106.717 209.681Z" fill="#EBEBEB"/>
<path d="M122.44 215.105C122.44 215.171 115.714 215.227 107.421 215.227C99.1279 215.227 92.4023 215.171 92.4023 215.105C92.4023 215.038 99.1279 214.982 107.421 214.982C115.714 214.982 122.44 215.038 122.44 215.105Z" fill="#EBEBEB"/>
<path d="M155.156 209.681C155.156 209.752 148.431 209.804 140.138 209.804C131.845 209.804 125.119 209.752 125.119 209.681C125.119 209.61 131.84 209.559 140.138 209.559C148.436 209.559 155.156 209.615 155.156 209.681Z" fill="#EBEBEB"/>
<path d="M119.483 209.681C118.135 209.803 116.781 209.844 115.428 209.804C114.075 209.844 112.721 209.803 111.373 209.681C112.72 209.557 114.075 209.516 115.428 209.559C116.781 209.516 118.135 209.557 119.483 209.681Z" fill="#EBEBEB"/>
<path d="M85.6721 215.105C84.324 215.226 82.9699 215.267 81.617 215.227C80.2641 215.267 78.9101 215.226 77.562 215.105C78.9101 214.983 80.2641 214.942 81.617 214.982C82.9699 214.942 84.324 214.983 85.6721 215.105Z" fill="#EBEBEB"/>
<path d="M134.131 214.873C132.835 214.998 131.532 215.039 130.231 214.996C128.928 215.039 127.623 214.998 126.326 214.873C127.624 214.752 128.928 214.711 130.231 214.751C131.532 214.711 132.834 214.752 134.131 214.873Z" fill="#EBEBEB"/>
<path d="M106.44 199.835C106.44 199.901 99.7141 199.958 91.421 199.958C83.1279 199.958 76.4023 199.901 76.4023 199.835C76.4023 199.769 83.1232 199.713 91.421 199.713C99.7188 199.713 106.44 199.765 106.44 199.835Z" fill="#EBEBEB"/>
<path d="M122.162 205.254C122.162 205.32 115.437 205.377 107.144 205.377C98.8506 205.377 92.125 205.32 92.125 205.254C92.125 205.188 98.8459 205.131 107.144 205.131C115.441 205.131 122.162 205.188 122.162 205.254Z" fill="#EBEBEB"/>
<path d="M154.88 199.835C154.88 199.901 148.159 199.958 139.861 199.958C131.563 199.958 124.842 199.901 124.842 199.835C124.842 199.769 131.568 199.713 139.861 199.713C148.154 199.713 154.88 199.765 154.88 199.835Z" fill="#EBEBEB"/>
<path d="M119.211 199.831C117.863 199.952 116.509 199.993 115.156 199.953C113.803 199.993 112.449 199.952 111.101 199.831C112.448 199.706 113.803 199.665 115.156 199.708C116.509 199.665 117.863 199.706 119.211 199.831Z" fill="#EBEBEB"/>
<path d="M85.3904 205.254C84.0423 205.376 82.6882 205.417 81.3353 205.377C79.9824 205.416 78.6284 205.375 77.2803 205.254C78.6284 205.132 79.9824 205.091 81.3353 205.131C82.6882 205.091 84.0423 205.132 85.3904 205.254Z" fill="#EBEBEB"/>
<path d="M133.854 205.027C132.556 205.149 131.252 205.19 129.949 205.15C128.648 205.19 127.345 205.149 126.049 205.027C127.345 204.903 128.648 204.862 129.949 204.905C131.252 204.862 132.556 204.903 133.854 205.027Z" fill="#EBEBEB"/>
<path d="M101 188.592V198.906H99.0947V194.464H93.7912V198.887H91.8857V188.592H93.7912V192.84H99.0947V188.592H101Z" fill="#263238"/>
<path d="M105.83 190.216H102.432V188.597H111.138V190.216H107.735V198.91H105.83V190.216Z" fill="#263238"/>
<path d="M121.989 198.906V192.066L118.619 197.73H117.755L114.386 192.161V198.91H112.569V188.592H114.137L118.211 195.408L122.209 188.573H123.777V198.887L121.989 198.906Z" fill="#263238"/>
<path d="M126.56 188.592H128.466V197.296H133.825V198.92H126.56V188.592Z" fill="#263238"/>
<path d="M98.1661 73.4007L92.9095 70.7103C92.7996 67.2645 91.412 63.9847 89.0197 61.5154C86.6274 59.0462 83.4032 57.566 79.9809 57.3659C76.5586 57.1659 73.1857 58.2603 70.5249 60.4341C67.8642 62.6079 66.1081 65.7039 65.6018 69.1137C65.0955 72.5235 65.8756 76.0004 67.7888 78.8611C69.702 81.7218 72.61 83.7594 75.9411 84.5735C79.2722 85.3876 82.7857 84.9193 85.7909 83.2606C88.7962 81.602 91.0759 78.8728 92.1821 75.6097L98.1661 73.4007Z" fill="white"/>
<path d="M98.1659 73.4007L92.2007 75.671C92.1938 75.6749 92.186 75.6771 92.1781 75.6775C92.1702 75.6778 92.1623 75.6764 92.155 75.6732C92.1478 75.67 92.1414 75.6651 92.1362 75.659C92.1311 75.6529 92.1275 75.6457 92.1256 75.638C92.1234 75.6287 92.1234 75.619 92.1256 75.6097H92.2429C91.4715 77.9254 90.103 79.9939 88.2771 81.6041C87.7328 82.09 87.1453 82.5245 86.5218 82.9021C86.1979 83.0956 85.8788 83.2986 85.5362 83.4826L84.4802 84.016C81.2171 85.366 77.5652 85.415 74.2675 84.1529C72.4374 83.4568 70.7764 82.3754 69.3958 80.981C67.9463 79.501 66.8404 77.7166 66.1574 75.756C65.434 73.7157 65.2023 71.5319 65.4816 69.384C65.7645 67.1793 66.5692 65.0751 67.8282 63.248C69.0343 61.5111 70.6145 60.0704 72.4512 59.033C74.1803 58.0492 76.1026 57.4579 78.0832 57.3008C81.6462 57.0318 85.1756 58.1524 87.9392 60.4302C89.0961 61.4102 90.0951 62.5646 90.9006 63.8522C92.1714 65.9186 92.8757 68.2863 92.9422 70.715L92.9094 70.6631L98.1378 73.4054L92.8531 70.767C92.8437 70.7622 92.836 70.7547 92.8309 70.7454C92.8259 70.7362 92.8238 70.7256 92.8249 70.715C92.7382 68.3144 92.0261 65.9788 90.7599 63.9418C89.954 62.6767 88.9618 61.542 87.8171 60.5765C85.0801 58.3447 81.5963 57.2534 78.0832 57.5274C76.1313 57.682 74.2373 58.2669 72.5356 59.2407C70.7318 60.2625 69.1791 61.6787 67.9925 63.3849C66.7682 65.1739 65.9847 67.2303 65.7068 69.384C65.4234 71.4967 65.6438 73.6468 66.3498 75.6569C67.0207 77.5852 68.1073 79.3405 69.5319 80.797C70.8857 82.1703 72.5165 83.2358 74.3144 83.9216C77.5604 85.171 81.1571 85.1339 84.3769 83.8178L85.4282 83.3458C85.7615 83.1617 86.0806 82.9634 86.4044 82.7746C87.0196 82.4023 87.6007 81.9758 88.141 81.5002C89.9566 79.9173 91.3246 77.8804 92.1068 75.5955C92.1122 75.5808 92.1229 75.5686 92.1369 75.5616C92.1509 75.5546 92.167 75.5532 92.1819 75.5578C92.1951 75.5628 92.2063 75.5719 92.2139 75.5838C92.2215 75.5957 92.2251 75.6097 92.2242 75.6238L92.1397 75.5625L98.1659 73.4007Z" fill="#263238"/>
<path d="M82.3025 74.1795C82.3636 74.0915 82.4344 74.0107 82.5137 73.9388L83.1285 73.3158C83.6494 72.8013 84.3769 72.0886 85.1889 71.3145V71.4183C84.3722 70.6584 83.6401 69.9598 83.1144 69.4548L82.4996 68.8459C82.4205 68.7742 82.3482 68.6952 82.2837 68.6099C82.2837 68.6099 82.3822 68.6713 82.5371 68.8034L83.1848 69.3793C83.7245 69.8513 84.4708 70.5498 85.2874 71.3145L85.339 71.3664L85.2874 71.4183C84.4755 72.1924 83.7386 72.891 83.1989 73.3913L82.5559 73.9766C82.4795 74.0538 82.3944 74.1219 82.3025 74.1795Z" fill="#263238"/>
<path d="M82.3025 74.2409C82.2888 74.2455 82.274 74.2455 82.2603 74.2409C82.218 74.1937 82.2321 74.1748 82.4715 73.9199L83.0863 73.3016C83.6167 72.773 84.316 72.0933 85.0669 71.3711C84.3254 70.682 83.6307 70.0212 83.091 69.4831L82.4762 68.8742C82.2415 68.6382 82.2134 68.6052 82.2603 68.5533C82.3072 68.5014 82.3354 68.5533 82.5935 68.7468L83.2412 69.3226C83.795 69.7946 84.5037 70.4743 85.2546 71.1729L85.3344 71.2484L85.4377 71.3428L85.3157 71.4561L85.2593 71.5127C84.4943 72.2443 83.7762 72.9287 83.2365 73.4007L82.6029 74.0238C82.4105 74.1842 82.3401 74.2409 82.3025 74.2409ZM85.1514 71.4089L83.5697 72.9429C84.0391 72.5086 84.5882 71.9989 85.1702 71.4278L85.1514 71.4089ZM83.5838 69.7663C84.0531 70.21 84.5882 70.7103 85.1514 71.2484C84.6023 70.7198 84.0531 70.2147 83.5838 69.7852V69.7663Z" fill="#263238"/>
<path d="M76.004 68.591C75.9453 68.6809 75.8742 68.762 75.7928 68.8318L75.1827 69.4501C74.657 69.9693 73.9296 70.6773 73.1223 71.4561V71.3522C73.939 72.1122 74.6711 72.806 75.1968 73.3158L75.8116 73.9246C75.9571 74.0662 76.0322 74.1512 76.0228 74.1606C75.9346 74.1015 75.8514 74.0352 75.7741 73.9624L75.0935 73.4102C74.5491 72.9382 73.8075 72.2349 72.9909 71.475L72.9346 71.423L72.9909 71.3711C73.7982 70.5923 74.5397 69.8985 75.0794 69.3982L75.7224 68.8082C75.8075 68.7249 75.902 68.6521 76.004 68.591Z" fill="#263238"/>
<path d="M76.0321 74.2409C75.9946 74.2409 75.9289 74.189 75.7411 74.0285L75.0934 73.4526C74.549 72.9806 73.8356 72.3104 73.08 71.6024L73.0002 71.5269L72.897 71.4325L73.0143 71.3192L73.0753 71.2626C73.8403 70.531 74.5537 69.8466 75.0934 69.351L75.7411 68.7657C75.9946 68.5439 76.0227 68.5203 76.0697 68.5675C76.1166 68.6147 76.0697 68.6524 75.8585 68.8931L75.2436 69.5115C74.718 70.0354 74.0187 70.7151 73.2677 71.4372C74.014 72.1405 74.7133 72.8013 75.2389 73.3252L75.8585 73.9341C76.0931 74.1748 76.1166 74.1984 76.0744 74.2503C76.0596 74.2521 76.0447 74.2487 76.0321 74.2409ZM73.1645 71.5175C73.7371 72.0555 74.2815 72.5558 74.7508 72.9806L73.1833 71.5033L73.1645 71.5175ZM73.1598 71.3239C73.7371 70.7717 74.2862 70.243 74.7461 69.7899C74.2721 70.243 73.7183 70.767 73.1363 71.3239H73.1598Z" fill="#263238"/>
<path d="M77.6231 75.52C77.5856 75.52 78.2473 73.632 79.0968 71.3428C79.9463 69.0536 80.6738 67.2081 80.7066 67.2222C80.7395 67.2364 80.0824 69.1102 79.2329 71.3947C78.3834 73.6792 77.6607 75.52 77.6231 75.52Z" fill="#263238"/>
<path d="M77.6278 75.5578H77.5996C77.5292 75.5342 77.5198 75.5295 77.9704 74.2503C78.252 73.4621 78.6321 72.419 79.0452 71.3098C79.4582 70.2006 79.8477 69.1622 80.1528 68.3834C80.6456 67.1231 80.6597 67.1231 80.7301 67.1514C80.8005 67.1798 80.8099 67.1798 80.3593 68.4589C80.0777 69.2471 79.6975 70.295 79.2845 71.3995C78.8715 72.5039 78.482 73.5471 78.1769 74.3306C77.7451 75.4162 77.6841 75.5578 77.6278 75.5578ZM80.0448 68.9828C79.7961 69.6294 79.4957 70.4271 79.1531 71.3428C78.8105 72.2585 78.5195 73.0609 78.2848 73.7028C78.5336 73.0609 78.834 72.2868 79.1766 71.3428C79.5192 70.3988 79.8102 69.6342 80.0448 68.9828Z" fill="#263238"/>
<path d="M317.269 223.081C317.269 223.147 252.97 223.204 173.653 223.204C94.3358 223.204 30.0371 223.147 30.0371 223.081C30.0371 223.015 94.3358 222.959 173.653 222.959C252.97 222.959 317.269 223.015 317.269 223.081Z" fill="#263238"/>
<path d="M217.644 101.438C217.644 101.438 217.644 101.154 217.644 100.616C217.644 100.078 217.644 99.2805 217.644 98.2562C217.644 96.1794 217.644 93.1398 217.62 89.2882C217.62 81.5474 217.588 70.4838 217.564 57.1922L217.667 57.2961H168.345L168.467 57.1734C168.467 73.2922 168.467 88.4575 168.467 101.48L168.359 101.371L204.028 101.428L214.091 101.456H216.757H217.442H216.766H214.124L204.066 101.48L168.317 101.537H168.209V101.428C168.209 88.4056 168.209 73.2402 168.209 57.1214V56.9987H168.336H217.658H217.771V57.112C217.771 70.4554 217.733 81.5427 217.719 89.2977C217.719 93.1586 217.719 96.1936 217.691 98.2657C217.691 99.2946 217.691 100.083 217.691 100.626C217.691 101.168 217.644 101.438 217.644 101.438Z" fill="#263238"/>
<path d="M213.626 59.6514H171.537V98.917H213.626V59.6514Z" fill="#007A65"/>
<g opacity="0.3">
<path opacity="0.3" d="M196.994 68.5014C196.425 68.5254 195.876 68.717 195.414 69.0523C194.953 69.3876 194.599 69.8518 194.398 70.3874C194.197 70.9229 194.156 71.5061 194.282 72.0645C194.407 72.623 194.693 73.132 195.104 73.5284C195.515 73.9249 196.032 74.1912 196.592 74.2943C197.152 74.3975 197.73 74.3329 198.254 74.1086C198.778 73.8843 199.224 73.5102 199.538 73.0328C199.853 72.5553 200.02 71.9956 200.021 71.423C200.013 71.0313 199.928 70.6449 199.772 70.286C199.615 69.9272 199.39 69.6028 199.109 69.3315C198.828 69.0602 198.496 68.8472 198.133 68.7048C197.77 68.5623 197.383 68.4932 196.994 68.5014Z" fill="black"/>
<path opacity="0.3" d="M210.36 62.7382L174.803 62.7099C174.841 62.6674 174.419 63.0781 174.597 62.9082V65.136C174.597 65.877 174.597 66.6134 174.597 67.3497V71.744C174.597 74.6279 174.597 77.4552 174.597 80.2022C174.597 85.701 174.597 90.9025 174.597 95.6838V95.816H174.771L200.584 95.731L207.797 95.6886H209.675H210.144C210.195 95.6967 210.248 95.6967 210.299 95.6886H210.125H209.628H207.704L200.452 95.6461L192.507 95.6178H210.294C210.294 95.6838 210.294 95.7263 210.294 95.7263C210.302 95.6795 210.302 95.6316 210.294 95.5847C210.294 95.4714 210.294 95.3298 210.294 95.1458C210.294 94.7351 210.294 94.1593 210.318 93.4088C210.318 91.8606 210.341 89.6328 210.36 86.7772C210.383 81.0188 210.412 72.8154 210.449 62.9648V62.7996L210.36 62.7382ZM201.752 81.4058L195.966 88.264L186.443 75.3454L174.972 95.2496C174.972 90.5815 174.972 85.5217 174.972 80.1786C174.972 77.4316 174.972 74.6043 174.972 71.7204C174.972 70.2761 174.972 68.8176 174.972 67.3449V63.0969L210.172 63.0686C210.205 72.8013 210.238 80.9102 210.257 86.612C210.257 89.4723 210.294 91.7238 210.304 93.2814C210.304 94.0413 210.304 94.6313 210.304 95.0466C210.304 95.2402 210.304 95.3865 210.304 95.5186V95.5611L201.752 81.4058Z" fill="black"/>
</g>
<path d="M169.612 55.4978H167.026V58.0985H169.612V55.4978Z" fill="#263238"/>
<path d="M218.522 55.4978H215.936V58.0985H218.522V55.4978Z" fill="#263238"/>
<path d="M218.522 99.71H215.936V102.311H218.522V99.71Z" fill="#263238"/>
<path d="M169.974 99.71H167.388V102.311H169.974V99.71Z" fill="#263238"/>
<path d="M169.974 77.8611H167.388V80.4618H169.974V77.8611Z" fill="#263238"/>
<path d="M193.957 100.14H191.371V102.74H193.957V100.14Z" fill="#263238"/>
<path d="M218.94 76.5631H216.354V79.1638H218.94V76.5631Z" fill="#263238"/>
<path d="M193.966 55.7338H191.38V58.3345H193.966V55.7338Z" fill="#263238"/>
</svg>
