<svg width="346" height="310" viewBox="0 0 346 310" fill="none" xmlns="http://www.w3.org/2000/svg">
<path d="M264.367 182.933C261.306 158.645 251.697 134.48 239.184 114.725C222.926 89.021 196.931 68.3984 166.084 64.5761C144.259 61.8731 119.377 68.7622 102.499 83.5421C94.0917 90.8098 87.6646 100.09 83.8182 110.517C79.6881 121.86 77.9252 134.855 69.027 143.759C58.3268 154.459 43.5581 159.574 32.5053 169.787C8.00451 192.43 15.1566 233.334 35.796 255.926C54.387 276.263 81.9546 272.503 106.763 276.347C125.578 279.257 141.863 289.868 161.098 291.872C188.917 294.776 217.621 285.464 238.048 266.229C261.782 243.821 268.19 213.282 264.367 182.933Z" fill="#EBEBEB"/>
<path d="M112.154 133.043V125.04L117.016 123.627C117.311 120.938 117.83 118.28 118.569 115.682L114.609 112.465L117.61 105.086L122.635 105.671C123.939 103.308 125.427 101.056 127.085 98.9345L124.63 94.4309L130.173 88.7769L134.622 91.2724C136.699 89.5851 138.913 88.0786 141.239 86.7688L140.663 81.6607L147.932 78.59L151.077 82.616C153.644 81.8833 156.264 81.3553 158.912 81.0368L160.302 76.0945H168.156L169.575 81.0368C172.216 81.3571 174.829 81.8851 177.39 82.616L180.545 78.59L187.804 81.6607L187.229 86.7688C189.56 88.0762 191.776 89.5829 193.855 91.2724L198.286 88.7769L203.857 94.4309L201.393 98.9248C203.047 101.044 204.529 103.297 205.823 105.661L210.848 105.076L213.868 112.455L209.889 115.672C210.632 118.27 211.152 120.928 211.442 123.617L216.333 125.03V133.043L211.442 134.457C211.155 137.15 210.635 139.811 209.889 142.412L213.868 145.619L210.848 152.998L205.823 152.433C204.529 154.79 203.047 157.037 201.393 159.149L203.857 163.672L198.266 169.278L193.836 166.772C191.755 168.465 189.539 169.978 187.21 171.295L187.785 176.404L180.526 179.455L177.371 175.429C174.815 176.178 172.2 176.706 169.556 177.008L168.137 181.96H160.283L158.95 177.008C156.299 176.708 153.678 176.18 151.116 175.429L147.97 179.455L140.702 176.404L141.277 171.295C138.953 169.975 136.74 168.463 134.66 166.772L130.182 169.278L124.639 163.633L127.094 159.11C125.437 156.996 123.949 154.75 122.645 152.394L117.62 152.959L114.619 145.58L118.579 142.373C117.837 139.771 117.317 137.11 117.026 134.418L112.154 133.043ZM164.234 165.924C171.409 165.924 178.423 163.761 184.389 159.709C190.355 155.656 195.005 149.896 197.75 143.157C200.495 136.418 201.213 129.002 199.813 121.849C198.412 114.695 194.956 108.124 189.882 102.967C184.808 97.81 178.343 94.2985 171.305 92.8767C164.268 91.4548 156.973 92.1865 150.345 94.9792C143.716 97.7719 138.051 102.5 134.066 108.566C130.081 114.632 127.955 121.762 127.957 129.056C127.968 138.829 131.794 148.198 138.597 155.104C145.399 162.01 154.62 165.888 164.234 165.885V165.924Z" fill="#007A65"/>
<path d="M87.2698 190.1C87.803 188.362 88.5066 186.684 89.3699 185.089L88.3151 180.215L95.4687 172.943L100.263 174.015C101.832 173.138 103.483 172.422 105.192 171.88L108.309 166.928H118.445L121.552 171.88C123.264 172.422 124.918 173.138 126.49 174.015L131.285 172.943L138.448 180.215L137.393 185.089C138.253 186.686 138.956 188.364 139.493 190.1L144.355 193.268V203.562L139.493 206.73C138.953 208.468 138.249 210.149 137.393 211.75L138.448 216.625L131.285 223.906L126.49 222.834C124.916 223.708 123.262 224.423 121.552 224.969L118.445 229.911H108.328L105.25 224.979C103.542 224.433 101.891 223.717 100.321 222.844L95.5262 223.916L88.3726 216.634L89.4274 211.76C88.5675 210.161 87.8641 208.479 87.3274 206.74L82.4656 203.572V193.268L87.2698 190.1ZM113.391 212.677C116.166 212.678 118.88 211.844 121.188 210.278C123.496 208.712 125.296 206.485 126.359 203.879C127.423 201.274 127.702 198.406 127.162 195.639C126.621 192.871 125.286 190.329 123.324 188.334C121.363 186.338 118.863 184.979 116.141 184.428C113.42 183.877 110.598 184.159 108.034 185.238C105.47 186.317 103.279 188.145 101.737 190.491C100.195 192.836 99.3716 195.594 99.3716 198.415C99.3716 202.196 100.848 205.822 103.477 208.496C106.106 211.17 109.672 212.674 113.391 212.677V212.677Z" fill="#C09B6F"/>
<path d="M311.219 0.0584717V127.623C329.065 127.623 346 104.735 346 63.8117C346 22.8888 329.065 0.0584717 311.219 0.0584717Z" fill="#263238"/>
<path d="M296.567 4.74735L296.154 4.27944C296.997 3.50691 297.881 2.78124 298.801 2.10559L299.165 2.62224C298.257 3.27604 297.389 3.98573 296.567 4.74735V4.74735Z" fill="#407BFF"/>
<path d="M286.997 17.9757L286.45 17.693C288.187 14.1862 290.304 10.8872 292.76 7.85706L293.239 8.26648C290.806 11.2537 288.711 14.5107 286.997 17.9757V17.9757Z" fill="#407BFF"/>
<path d="M311.219 127.623C329.062 127.623 343.526 99.054 343.526 63.8117C343.526 28.5695 329.062 0 311.219 0C293.377 0 278.913 28.5695 278.913 63.8117C278.913 99.054 293.377 127.623 311.219 127.623Z" fill="#C09B6F"/>
<path d="M311.219 114.863C325.497 114.863 337.072 92.0066 337.072 63.8117C337.072 35.6168 325.497 12.7604 311.219 12.7604C296.941 12.7604 285.366 35.6168 285.366 63.8117C285.366 92.0066 296.941 114.863 311.219 114.863Z" fill="white"/>
<path d="M311.219 102.103C321.928 102.103 330.609 84.9593 330.609 63.8117C330.609 42.6642 321.928 25.5208 311.219 25.5208C300.511 25.5208 291.83 42.6642 291.83 63.8117C291.83 84.9593 300.511 102.103 311.219 102.103Z" fill="#007A65"/>
<path d="M311.219 89.3326C318.358 89.3326 324.146 77.9065 324.146 63.8117C324.146 49.717 318.358 38.291 311.219 38.291C304.08 38.291 298.293 49.717 298.293 63.8117C298.293 77.9065 304.08 89.3326 311.219 89.3326Z" fill="white"/>
<path d="M311.219 76.5721C314.789 76.5721 317.682 70.8591 317.682 63.8117C317.682 56.7644 314.789 51.0513 311.219 51.0513C307.65 51.0513 304.756 56.7644 304.756 63.8117C304.756 70.8591 307.65 76.5721 311.219 76.5721Z" fill="#C09B6F"/>
<path d="M281.924 120.615L237.813 153.651L257.136 156.322L219.43 220.163L165.203 210.415C164.545 210.295 163.869 210.352 163.24 210.579C162.611 210.806 162.051 211.197 161.616 211.711V211.711L116.546 264.703L54.0524 254.662C53.3915 254.556 52.7156 254.603 52.0749 254.799C51.4341 254.994 50.8449 255.334 50.3509 255.793V255.793L1.52195 301.278C0.592392 302.161 0.0459248 303.383 0.00276443 304.675C-0.040396 305.968 0.423288 307.225 1.29181 308.17C2.16033 309.115 3.36255 309.67 4.63398 309.714C5.90542 309.758 7.14192 309.287 8.07148 308.404L54.7908 263.991L117.505 273.515C118.213 273.63 118.937 273.557 119.609 273.304C120.281 273.052 120.877 272.627 121.341 272.072L165.989 218.516L220.552 227.932C221.277 228.057 222.021 227.956 222.687 227.64C223.354 227.325 223.91 226.812 224.282 226.168L262.784 159.822L274.291 175.809L281.924 120.615Z" fill="#007A65"/>
</svg>
