<svg width="146" height="37" viewBox="0 0 146 37" fill="none" xmlns="http://www.w3.org/2000/svg">
<path d="M40.7457 28.01V20.73C40.7457 18.5567 41.8324 17.47 44.0057 17.47H48.5857C50.7591 17.47 51.8457 18.5567 51.8457 20.73V28.03C51.8457 29.87 51.0524 30.91 49.4657 31.15L50.7857 33.75L50.4857 34.27H48.3857L46.8657 31.27H44.0057C41.8324 31.27 40.7457 30.1834 40.7457 28.01ZM43.1857 28.19C43.1857 28.7634 43.4791 29.05 44.0657 29.05H48.5257C49.1124 29.05 49.4057 28.7634 49.4057 28.19V20.55C49.4057 19.9767 49.1124 19.69 48.5257 19.69H44.0657C43.4791 19.69 43.1857 19.9767 43.1857 20.55V28.19ZM54.7673 28.11V20.77H57.1073V28.31C57.1073 28.9234 57.414 29.23 58.0273 29.23H61.3273V20.77H63.6673V31.27H57.9273C55.8206 31.27 54.7673 30.2167 54.7673 28.11ZM66.5837 31.27V22.07C67.0637 21.2034 67.9837 20.77 69.3437 20.77H71.4437L72.5037 21.55V22.81H69.8837C69.4304 22.81 69.1104 22.9234 68.9237 23.15V31.27H66.5837ZM74.4553 18.95V16.57H76.9153V18.95H74.4553ZM74.5153 31.27V20.77H76.8553V31.27H74.5153ZM82.4473 31.27C80.3406 31.27 79.2873 30.23 79.2873 28.15C79.2873 26.07 80.3406 25.03 82.4473 25.03H85.5273V23.73C85.5273 23.1167 85.2206 22.81 84.6073 22.81H80.3673V21.55L81.4073 20.77H84.7273C86.8206 20.77 87.8673 21.8234 87.8673 23.93V31.27H82.4473ZM81.6273 28.31C81.6273 28.9234 81.934 29.23 82.5473 29.23H85.5273V26.85H82.5473C81.934 26.85 81.6273 27.15 81.6273 27.75V28.31ZM90.7048 31.27V22.07C91.1848 21.2034 92.1048 20.77 93.4648 20.77H95.5648L96.6248 21.55V22.81H94.0048C93.5515 22.81 93.2315 22.9234 93.0448 23.15V31.27H90.7048ZM98.6364 31.27V16.47H100.976V20.77H104.396C106.49 20.77 107.536 21.8234 107.536 23.93V28.11C107.536 30.2167 106.49 31.27 104.396 31.27H98.6364ZM100.976 29.23H104.276C104.89 29.23 105.196 28.9234 105.196 28.31V23.73C105.196 23.1167 104.89 22.81 104.276 22.81H100.976V29.23ZM110.215 28.11V23.93C110.215 21.8234 111.268 20.77 113.375 20.77H116.175C118.268 20.77 119.315 21.8234 119.315 23.93V28.11C119.315 30.2167 118.268 31.27 116.175 31.27H113.375C111.268 31.27 110.215 30.2167 110.215 28.11ZM112.555 28.31C112.555 28.9234 112.861 29.23 113.475 29.23H116.055C116.668 29.23 116.975 28.9234 116.975 28.31V23.73C116.975 23.1167 116.668 22.81 116.055 22.81H113.475C112.861 22.81 112.555 23.1167 112.555 23.73V28.31ZM121.232 30.87L124.752 25.95L121.332 21.17L121.532 20.77H123.692L126.072 24.21L128.472 20.77H130.632L130.832 21.17L127.412 25.95L130.932 30.87L130.752 31.27H128.572L126.072 27.69L123.572 31.27H121.412L121.232 30.87Z" fill="#F95C19"/>
<path d="M18.823 36.3448L32.0301 27.2262C32.834 26.67 33.2829 25.7718 33.2959 24.8546L33.4443 15.8875C33.4655 14.611 32.6874 13.4625 31.5022 13.0205L23.1761 9.91595C22.3253 9.59637 21.3343 9.69427 20.5303 10.2504L7.33964 19.3934L18.8888 23.8515L18.823 36.3448Z" fill="#F95C19"/>
<path d="M20.7723 10.0124L7.48748 19.1847C6.67882 19.7441 6.22731 20.6476 6.21419 21.5702L6.06469 30.6026C6.04356 31.8791 6.82163 33.0276 8.00684 33.4696L16.3935 36.5968C17.2494 36.9182 18.2462 36.8197 19.0549 36.2603L32.3232 27.0636L22.6277 23.321C21.4709 22.8744 20.7104 21.7518 20.717 20.5004L20.7723 10.0124Z" fill="#CA3E02"/>
</svg>
